<?xml version="1.0" encoding="iso-8859-1"?>
<!-- Generator: Adobe Illustrator 19.0.0, SVG Export Plug-In . SVG Version: 6.00 Build 0)  -->
<svg version="1.1" id="Layer_1" xmlns="http://www.w3.org/2000/svg" xmlns:xlink="http://www.w3.org/1999/xlink" x="0px" y="0px"
	 viewBox="0 0 127.934 127.934" style="enable-background:new 0 0 127.934 127.934;" xml:space="preserve">
<g>
	<g>
		<g>
			<g>
				<g>
					<g>
						<circle style="fill:#E02B7E;" cx="63.967" cy="110.051" r="16.384"/>
					</g>
					<g>
						<path style="fill:#F93585;" d="M63.968,93.666c-8.07,0-14.762,5.839-16.117,13.521c1.355,7.68,8.047,13.519,16.117,13.519
							s14.762-5.84,16.117-13.519C78.73,99.505,72.038,93.666,63.968,93.666z"/>
					</g>
					<g>
						<path style="fill:#E02B7E;" d="M63.968,93.666c9.049,0,16.383,7.336,16.383,16.385c0,9.047-7.334,16.383-16.383,16.383"/>
					</g>
					<g>
						<path style="fill:#C90D6B;" d="M80.277,108.578c-0.047-0.469-0.111-0.934-0.191-1.391c-1.355,7.68-8.047,13.519-16.117,13.519
							v5.727c9.049,0,16.383-7.336,16.383-16.383C80.351,109.553,80.319,109.063,80.277,108.578z"/>
					</g>
					<g>
						<path style="fill:#33363A;" d="M63.968,127.934c-9.862,0-17.885-8.022-17.885-17.883c0-9.861,8.023-17.885,17.885-17.885
							c9.861,0,17.883,8.023,17.883,17.885C81.851,119.911,73.829,127.934,63.968,127.934z M63.968,95.166
							c-8.208,0-14.885,6.678-14.885,14.885c0,8.206,6.677,14.883,14.885,14.883c8.207,0,14.883-6.677,14.883-14.883
							C78.851,101.844,72.174,95.166,63.968,95.166z"/>
					</g>
					<g>
						<path style="fill:#33363A;" d="M47.583,111.551c-0.829,0-1.5-0.672-1.5-1.5c0-9.861,8.023-17.885,17.885-17.885
							c0.829,0,1.5,0.672,1.5,1.5s-0.671,1.5-1.5,1.5c-8.208,0-14.885,6.678-14.885,14.885
							C49.083,110.879,48.412,111.551,47.583,111.551z"/>
					</g>
				</g>
				<g>
					<path style="fill:#FFE6EB;" d="M52.304,111.656c-0.829,0-1.5-0.672-1.5-1.5c0-7.259,5.905-13.164,13.164-13.164
						c0.829,0,1.5,0.672,1.5,1.5s-0.671,1.5-1.5,1.5c-5.604,0-10.164,4.56-10.164,10.164
						C53.804,110.985,53.132,111.656,52.304,111.656z"/>
				</g>
				<g>
					<path style="fill:#FFE6EB;" d="M53.757,115.677c-0.39,0-0.78-0.16-1.06-0.44c-0.28-0.279-0.44-0.66-0.44-1.06
						c0-0.391,0.16-0.78,0.44-1.061c0.56-0.56,1.56-0.56,2.12,0c0.28,0.28,0.44,0.67,0.44,1.061c0,0.39-0.16,0.78-0.44,1.06
						C54.537,115.517,54.147,115.677,53.757,115.677z"/>
				</g>
			</g>
		</g>
		<g>
			<g>
				<g>
					<g>
						<circle style="fill:#E02B7E;" cx="47.584" cy="85.676" r="16.384"/>
					</g>
					<g>
						<path style="fill:#F93585;" d="M47.583,69.293c-8.068,0-14.76,5.84-16.117,13.521c1.357,7.68,8.049,13.52,16.117,13.52
							c8.07,0,14.762-5.84,16.117-13.52C62.345,75.133,55.653,69.293,47.583,69.293z"/>
					</g>
					<g>
						<path style="fill:#E02B7E;" d="M47.583,69.293c9.049,0,16.385,7.336,16.385,16.383c0,9.049-7.336,16.385-16.385,16.385"/>
					</g>
					<g>
						<path style="fill:#C90D6B;" d="M63.894,84.205c-0.047-0.471-0.111-0.933-0.193-1.391c-1.355,7.68-8.047,13.52-16.117,13.52
							v5.727c9.049,0,16.385-7.336,16.385-16.385C63.968,85.181,63.937,84.692,63.894,84.205z"/>
					</g>
					<g>
						<path style="fill:#33363A;" d="M47.583,103.561c-9.861,0-17.883-8.023-17.883-17.885c0-9.86,8.022-17.883,17.883-17.883
							c9.862,0,17.885,8.022,17.885,17.883C65.468,95.537,57.445,103.561,47.583,103.561z M47.583,70.793
							c-8.207,0-14.883,6.677-14.883,14.883c0,8.207,6.676,14.885,14.883,14.885c8.208,0,14.885-6.678,14.885-14.885
							C62.468,77.47,55.791,70.793,47.583,70.793z"/>
					</g>
					<g>
						<path style="fill:#33363A;" d="M31.2,87.176c-0.829,0-1.5-0.672-1.5-1.5c0-9.86,8.022-17.883,17.883-17.883
							c0.829,0,1.5,0.672,1.5,1.5s-0.671,1.5-1.5,1.5c-8.207,0-14.883,6.677-14.883,14.883C32.7,86.504,32.029,87.176,31.2,87.176z"
							/>
					</g>
				</g>
				<g>
					<path style="fill:#FFE6EB;" d="M35.919,87.282c-0.829,0-1.5-0.672-1.5-1.5c0-7.258,5.905-13.163,13.164-13.163
						c0.829,0,1.5,0.672,1.5,1.5s-0.671,1.5-1.5,1.5c-5.604,0-10.164,4.56-10.164,10.163C37.419,86.611,36.748,87.282,35.919,87.282
						z"/>
				</g>
				<g>
					<path style="fill:#FFE6EB;" d="M37.367,91.307c-0.39,0-0.78-0.16-1.05-0.44c-0.28-0.279-0.45-0.67-0.45-1.06
						s0.17-0.78,0.45-1.06c0.55-0.561,1.56-0.561,2.12,0c0.28,0.279,0.43,0.67,0.43,1.06s-0.15,0.78-0.43,1.06
						C38.157,91.147,37.767,91.307,37.367,91.307z"/>
				</g>
			</g>
			<g>
				<g>
					<g>
						<circle style="fill:#E02B7E;" cx="80.352" cy="85.676" r="16.384"/>
					</g>
					<g>
						<path style="fill:#F93585;" d="M80.351,69.293c-8.07,0-14.762,5.84-16.117,13.521c1.355,7.68,8.047,13.52,16.117,13.52
							s14.762-5.84,16.119-13.52C95.112,75.133,88.421,69.293,80.351,69.293z"/>
					</g>
					<g>
						<path style="fill:#E02B7E;" d="M80.351,69.293c9.049,0,16.385,7.336,16.385,16.383c0,9.049-7.336,16.385-16.385,16.385"/>
					</g>
					<g>
						<path style="fill:#C90D6B;" d="M96.661,84.205c-0.047-0.471-0.111-0.933-0.191-1.391c-1.357,7.68-8.049,13.52-16.119,13.52
							v5.727c9.049,0,16.385-7.336,16.385-16.385C96.736,85.181,96.702,84.692,96.661,84.205z"/>
					</g>
					<g>
						<path style="fill:#33363A;" d="M80.351,103.561c-9.861,0-17.883-8.023-17.883-17.885c0-9.86,8.022-17.883,17.883-17.883
							c9.862,0,17.885,8.022,17.885,17.883C98.235,95.537,90.213,103.561,80.351,103.561z M80.351,70.793
							c-8.207,0-14.883,6.677-14.883,14.883c0,8.207,6.676,14.885,14.883,14.885c8.208,0,14.885-6.678,14.885-14.885
							C95.235,77.47,88.558,70.793,80.351,70.793z"/>
					</g>
					<g>
						<path style="fill:#33363A;" d="M63.968,87.176c-0.829,0-1.5-0.672-1.5-1.5c0-9.86,8.022-17.883,17.883-17.883
							c0.829,0,1.5,0.672,1.5,1.5s-0.671,1.5-1.5,1.5c-8.207,0-14.883,6.677-14.883,14.883
							C65.468,86.504,64.797,87.176,63.968,87.176z"/>
					</g>
				</g>
				<g>
					<path style="fill:#FFE6EB;" d="M68.687,87.282c-0.829,0-1.5-0.672-1.5-1.5c0-7.258,5.905-13.163,13.164-13.163
						c0.829,0,1.5,0.672,1.5,1.5s-0.671,1.5-1.5,1.5c-5.604,0-10.164,4.56-10.164,10.163C70.187,86.611,69.515,87.282,68.687,87.282
						z"/>
				</g>
				<g>
					<path style="fill:#FFE6EB;" d="M70.137,91.307c-0.39,0-0.78-0.16-1.06-0.44c-0.28-0.279-0.44-0.67-0.44-1.06
						s0.16-0.78,0.44-1.06c0.56-0.561,1.57-0.561,2.12,0c0.28,0.279,0.44,0.67,0.44,1.06s-0.16,0.78-0.44,1.06
						C70.917,91.147,70.537,91.307,70.137,91.307z"/>
				</g>
			</g>
		</g>
		<g>
			<g>
				<g>
					<g>
						<circle style="fill:#E02B7E;" cx="47.584" cy="48.033" r="16.384"/>
					</g>
					<g>
						<path style="fill:#F93585;" d="M47.583,31.651c-8.068,0-14.76,5.839-16.117,13.519c1.357,7.682,8.049,13.521,16.117,13.521
							c8.07,0,14.762-5.839,16.117-13.521C62.345,37.49,55.653,31.651,47.583,31.651z"/>
					</g>
					<g>
						<path style="fill:#E02B7E;" d="M47.583,31.651c9.049,0,16.385,7.335,16.385,16.383c0,9.049-7.336,16.385-16.385,16.385"/>
					</g>
					<g>
						<path style="fill:#C90D6B;" d="M63.894,46.562c-0.047-0.468-0.111-0.933-0.193-1.392c-1.355,7.682-8.047,13.521-16.117,13.521
							v5.728c9.049,0,16.385-7.336,16.385-16.385C63.968,47.537,63.937,47.047,63.894,46.562z"/>
					</g>
					<g>
						<path style="fill:#33363A;" d="M47.583,65.918c-9.861,0-17.883-8.023-17.883-17.885c0-9.861,8.022-17.883,17.883-17.883
							c9.862,0,17.885,8.022,17.885,17.883C65.468,57.895,57.445,65.918,47.583,65.918z M47.583,33.151
							c-8.207,0-14.883,6.676-14.883,14.883c0,8.208,6.676,14.885,14.883,14.885c8.208,0,14.885-6.677,14.885-14.885
							C62.468,39.827,55.791,33.151,47.583,33.151z"/>
					</g>
					<g>
						<path style="fill:#33363A;" d="M31.2,49.533c-0.829,0-1.5-0.671-1.5-1.5c0-9.861,8.022-17.883,17.883-17.883
							c0.829,0,1.5,0.671,1.5,1.5s-0.671,1.5-1.5,1.5c-8.207,0-14.883,6.676-14.883,14.883C32.7,48.862,32.029,49.533,31.2,49.533z"
							/>
					</g>
				</g>
				<g>
					<path style="fill:#FFE6EB;" d="M35.919,49.641c-0.829,0-1.5-0.671-1.5-1.5c0-7.259,5.905-13.164,13.164-13.164
						c0.829,0,1.5,0.671,1.5,1.5s-0.671,1.5-1.5,1.5c-5.604,0-10.164,4.56-10.164,10.164C37.419,48.969,36.748,49.641,35.919,49.641
						z"/>
				</g>
				<g>
					<path style="fill:#FFE6EB;" d="M37.377,53.667c-0.4,0-0.79-0.16-1.07-0.44c-0.27-0.28-0.43-0.67-0.43-1.06
						c0-0.4,0.15-0.78,0.43-1.06c0.57-0.56,1.57-0.56,2.13,0c0.28,0.28,0.44,0.66,0.44,1.06c0,0.39-0.16,0.78-0.45,1.06
						C38.157,53.507,37.767,53.667,37.377,53.667z"/>
				</g>
			</g>
			<g>
				<g>
					<g>
						<circle style="fill:#E02B7E;" cx="80.352" cy="48.033" r="16.384"/>
					</g>
					<g>
						<path style="fill:#F93585;" d="M80.351,31.651c-8.07,0-14.762,5.839-16.117,13.519c1.355,7.682,8.047,13.521,16.117,13.521
							S95.112,52.852,96.47,45.17C95.112,37.49,88.421,31.651,80.351,31.651z"/>
					</g>
					<g>
						<path style="fill:#E02B7E;" d="M80.351,31.651c9.049,0,16.385,7.335,16.385,16.383c0,9.049-7.336,16.385-16.385,16.385"/>
					</g>
					<g>
						<path style="fill:#C90D6B;" d="M96.661,46.562c-0.047-0.468-0.111-0.933-0.191-1.392c-1.357,7.682-8.049,13.521-16.119,13.521
							v5.728c9.049,0,16.385-7.336,16.385-16.385C96.736,47.537,96.702,47.047,96.661,46.562z"/>
					</g>
					<g>
						<path style="fill:#33363A;" d="M80.351,65.918c-9.861,0-17.883-8.023-17.883-17.885c0-9.861,8.022-17.883,17.883-17.883
							c9.862,0,17.885,8.022,17.885,17.883C98.235,57.895,90.213,65.918,80.351,65.918z M80.351,33.151
							c-8.207,0-14.883,6.676-14.883,14.883c0,8.208,6.676,14.885,14.883,14.885c8.208,0,14.885-6.677,14.885-14.885
							C95.235,39.827,88.558,33.151,80.351,33.151z"/>
					</g>
					<g>
						<path style="fill:#33363A;" d="M63.968,49.533c-0.829,0-1.5-0.671-1.5-1.5c0-9.861,8.022-17.883,17.883-17.883
							c0.829,0,1.5,0.671,1.5,1.5s-0.671,1.5-1.5,1.5c-8.207,0-14.883,6.676-14.883,14.883
							C65.468,48.862,64.797,49.533,63.968,49.533z"/>
					</g>
				</g>
				<g>
					<path style="fill:#FFE6EB;" d="M68.687,49.641c-0.829,0-1.5-0.671-1.5-1.5c0-7.259,5.905-13.164,13.164-13.164
						c0.829,0,1.5,0.671,1.5,1.5s-0.671,1.5-1.5,1.5c-5.604,0-10.164,4.56-10.164,10.164C70.187,48.969,69.515,49.641,68.687,49.641
						z"/>
				</g>
				<g>
					<path style="fill:#FFE6EB;" d="M70.137,53.667c-0.39,0-0.78-0.16-1.06-0.44c-0.28-0.28-0.44-0.67-0.44-1.06
						c0-0.4,0.16-0.78,0.44-1.06c0.56-0.56,1.57-0.56,2.12,0c0.28,0.28,0.44,0.66,0.44,1.06c0,0.39-0.16,0.78-0.44,1.06
						C70.927,53.507,70.537,53.667,70.137,53.667z"/>
				</g>
			</g>
		</g>
		<g>
			<g>
				<g>
					<g>
						<circle style="fill:#E02B7E;" cx="31.199" cy="62.532" r="16.384"/>
					</g>
					<g>
						<path style="fill:#F93585;" d="M31.2,46.15c-8.07,0-14.762,5.839-16.117,13.521c1.356,7.679,8.047,13.52,16.117,13.52
							s14.762-5.841,16.117-13.52C45.962,51.989,39.271,46.15,31.2,46.15z"/>
					</g>
					<g>
						<path style="fill:#E02B7E;" d="M31.2,46.15c9.049,0,16.383,7.333,16.383,16.382c0,9.049-7.334,16.385-16.383,16.385"/>
					</g>
					<g>
						<path style="fill:#C90D6B;" d="M47.509,61.061c-0.047-0.47-0.111-0.934-0.191-1.391c-1.356,7.679-8.047,13.52-16.117,13.52
							v5.727c9.049,0,16.383-7.336,16.383-16.385C47.583,62.035,47.552,61.546,47.509,61.061z"/>
					</g>
					<g>
						<path style="fill:#33363A;" d="M31.2,80.416c-9.862,0-17.885-8.023-17.885-17.885c0-9.86,8.023-17.882,17.885-17.882
							c9.861,0,17.883,8.022,17.883,17.882C49.083,72.393,41.061,80.416,31.2,80.416z M31.2,47.65
							c-8.208,0-14.885,6.676-14.885,14.882c0,8.207,6.677,14.885,14.885,14.885c8.207,0,14.883-6.678,14.883-14.885
							C46.083,54.325,39.407,47.65,31.2,47.65z"/>
					</g>
					<g>
						<path style="fill:#33363A;" d="M14.816,64.031c-0.829,0-1.5-0.671-1.5-1.5c0-9.86,8.023-17.882,17.885-17.882
							c0.829,0,1.5,0.671,1.5,1.5s-0.671,1.5-1.5,1.5c-8.208,0-14.885,6.676-14.885,14.882
							C16.316,63.36,15.644,64.031,14.816,64.031z"/>
					</g>
				</g>
				<g>
					<path style="fill:#FFE6EB;" d="M19.534,64.139c-0.829,0-1.5-0.671-1.5-1.5c0-7.26,5.906-13.166,13.166-13.166
						c0.829,0,1.5,0.671,1.5,1.5s-0.671,1.5-1.5,1.5c-5.605,0-10.166,4.561-10.166,10.166
						C21.034,63.468,20.363,64.139,19.534,64.139z"/>
				</g>
				<g>
					<path style="fill:#FFE6EB;" d="M20.987,68.167c-0.39,0-0.78-0.16-1.06-0.44c-0.28-0.29-0.44-0.67-0.44-1.06
						c0-0.4,0.16-0.79,0.44-1.07c0.56-0.55,1.56-0.561,2.12,0c0.28,0.28,0.44,0.67,0.44,1.07c0,0.39-0.16,0.77-0.44,1.06
						C21.767,68.007,21.387,68.167,20.987,68.167z"/>
				</g>
			</g>
			<g>
				<g>
					<g>
						<circle style="fill:#E02B7E;" cx="63.967" cy="62.532" r="16.384"/>
					</g>
					<g>
						<path style="fill:#F93585;" d="M63.968,46.15c-8.07,0-14.762,5.839-16.117,13.521c1.355,7.679,8.047,13.52,16.117,13.52
							s14.762-5.841,16.117-13.52C78.73,51.989,72.038,46.15,63.968,46.15z"/>
					</g>
					<g>
						<path style="fill:#E02B7E;" d="M63.968,46.15c9.049,0,16.383,7.333,16.383,16.382c0,9.049-7.334,16.385-16.383,16.385"/>
					</g>
					<g>
						<path style="fill:#C90D6B;" d="M80.277,61.061c-0.047-0.47-0.111-0.934-0.191-1.391c-1.355,7.679-8.047,13.52-16.117,13.52
							v5.727c9.049,0,16.383-7.336,16.383-16.385C80.351,62.035,80.319,61.546,80.277,61.061z"/>
					</g>
					<g>
						<path style="fill:#33363A;" d="M63.968,80.416c-9.862,0-17.885-8.023-17.885-17.885c0-9.86,8.023-17.882,17.885-17.882
							c9.861,0,17.883,8.022,17.883,17.882C81.851,72.393,73.829,80.416,63.968,80.416z M63.968,47.65
							c-8.208,0-14.885,6.676-14.885,14.882c0,8.207,6.677,14.885,14.885,14.885c8.207,0,14.883-6.678,14.883-14.885
							C78.851,54.325,72.174,47.65,63.968,47.65z"/>
					</g>
					<g>
						<path style="fill:#33363A;" d="M47.583,64.031c-0.829,0-1.5-0.671-1.5-1.5c0-9.86,8.023-17.882,17.885-17.882
							c0.829,0,1.5,0.671,1.5,1.5s-0.671,1.5-1.5,1.5c-8.208,0-14.885,6.676-14.885,14.882
							C49.083,63.36,48.412,64.031,47.583,64.031z"/>
					</g>
				</g>
				<g>
					<path style="fill:#FFE6EB;" d="M52.304,64.139c-0.829,0-1.5-0.671-1.5-1.5c0-7.26,5.905-13.166,13.164-13.166
						c0.829,0,1.5,0.671,1.5,1.5s-0.671,1.5-1.5,1.5c-5.604,0-10.164,4.561-10.164,10.166
						C53.804,63.468,53.132,64.139,52.304,64.139z"/>
				</g>
				<g>
					<path style="fill:#FFE6EB;" d="M53.757,68.167c-0.39,0-0.78-0.16-1.06-0.44c-0.28-0.28-0.44-0.67-0.44-1.06
						c0-0.4,0.16-0.79,0.44-1.07c0.56-0.55,1.56-0.55,2.12,0c0.28,0.28,0.44,0.67,0.44,1.07c0,0.39-0.16,0.77-0.44,1.06
						C54.537,68.007,54.147,68.167,53.757,68.167z"/>
				</g>
			</g>
			<g>
				<g>
					<g>
						<circle style="fill:#E02B7E;" cx="96.735" cy="62.532" r="16.384"/>
					</g>
					<g>
						<path style="fill:#F93585;" d="M96.736,46.15c-8.07,0-14.762,5.839-16.119,13.521c1.357,7.679,8.049,13.52,16.119,13.52
							c8.07,0,14.76-5.841,16.117-13.52C111.495,51.989,104.806,46.15,96.736,46.15z"/>
					</g>
					<g>
						<path style="fill:#E02B7E;" d="M96.736,46.15c9.049,0,16.383,7.333,16.383,16.382c0,9.049-7.334,16.385-16.383,16.385"/>
					</g>
					<g>
						<path style="fill:#C90D6B;" d="M113.044,61.061c-0.047-0.47-0.111-0.934-0.191-1.391c-1.357,7.679-8.047,13.52-16.117,13.52
							v5.727c9.049,0,16.383-7.336,16.383-16.385C113.118,62.035,113.087,61.546,113.044,61.061z"/>
					</g>
					<g>
						<path style="fill:#33363A;" d="M96.735,80.416c-9.862,0-17.885-8.023-17.885-17.885c0-9.86,8.023-17.882,17.885-17.882
							c9.861,0,17.883,8.022,17.883,17.882C114.618,72.393,106.596,80.416,96.735,80.416z M96.735,47.65
							c-8.208,0-14.885,6.676-14.885,14.882c0,8.207,6.677,14.885,14.885,14.885c8.207,0,14.883-6.678,14.883-14.885
							C111.618,54.325,104.942,47.65,96.735,47.65z"/>
					</g>
					<g>
						<path style="fill:#33363A;" d="M80.351,64.031c-0.829,0-1.5-0.671-1.5-1.5c0-9.86,8.023-17.882,17.885-17.882
							c0.829,0,1.5,0.671,1.5,1.5s-0.671,1.5-1.5,1.5c-8.208,0-14.885,6.676-14.885,14.882
							C81.851,63.36,81.179,64.031,80.351,64.031z"/>
					</g>
				</g>
				<g>
					<path style="fill:#FFE6EB;" d="M85.069,64.139c-0.829,0-1.5-0.671-1.5-1.5c0-7.26,5.906-13.166,13.166-13.166
						c0.829,0,1.5,0.671,1.5,1.5s-0.671,1.5-1.5,1.5c-5.605,0-10.166,4.561-10.166,10.166
						C86.569,63.468,85.898,64.139,85.069,64.139z"/>
				</g>
				<g>
					<path style="fill:#FFE6EB;" d="M86.527,68.167c-0.4,0-0.79-0.16-1.06-0.44c-0.28-0.29-0.44-0.67-0.44-1.06
						c0-0.4,0.16-0.79,0.44-1.07c0.55-0.55,1.55-0.561,2.12,0c0.28,0.28,0.44,0.67,0.44,1.07c0,0.39-0.16,0.77-0.44,1.06
						C87.307,68.007,86.917,68.167,86.527,68.167z"/>
				</g>
			</g>
		</g>
	</g>
	<g>
		<g>
			<g>
				<g>
					<path style="fill:#18AA67;" d="M75.802,26.363c0,10.036-4.615,12.913-11.83,18.79c-7.223-5.877-11.84-8.756-11.84-18.789
						c0-10.035,4.615-18.988,11.836-24.863C71.183,7.376,75.802,16.326,75.802,26.363z"/>
				</g>
				<g>
					<path style="fill:#65E529;" d="M63.968,1.5l0.004,43.652c-7.223-5.877-11.84-8.756-11.84-18.789
						C52.132,16.328,56.747,7.375,63.968,1.5z"/>
				</g>
				<g>
					<path style="fill:#33363A;" d="M63.972,46.653c-0.335,0-0.671-0.112-0.947-0.336c-0.552-0.449-1.088-0.88-1.609-1.299
						c-6.261-5.034-10.784-8.672-10.784-18.654c0-10.134,4.516-19.621,12.389-26.027c0.552-0.449,1.342-0.449,1.894,0
						c7.872,6.411,12.387,15.897,12.387,26.025c0,9.981-4.517,13.617-10.769,18.649c-0.522,0.42-1.06,0.853-1.614,1.304
						C64.643,46.54,64.308,46.653,63.972,46.653z M63.967,3.466c-6.583,5.809-10.335,14.084-10.335,22.897
						c0,8.545,3.433,11.305,9.665,16.316c0.222,0.178,0.447,0.359,0.675,0.543c0.229-0.185,0.457-0.368,0.68-0.548
						c6.223-5.008,9.65-7.767,9.65-16.312C74.302,17.554,70.551,9.279,63.967,3.466z"/>
				</g>
			</g>
		</g>
		<g>
			<g>
				<g>
					<g>
						<path style="fill:#18AA67;" d="M81.187,41.846c-5.461,5.458-9.533,4.512-16.654,3.785c-0.732-7.125-1.678-11.201,3.781-16.66
							c5.455-5.457,12.836-7.815,19.959-7.084C89.001,29.008,86.644,36.387,81.187,41.846z"/>
					</g>
					<g>
						<path style="fill:#65E529;" d="M88.273,21.887l-23.74,23.744c-0.732-7.125-1.678-11.201,3.781-16.66
							C73.769,23.514,81.15,21.156,88.273,21.887z"/>
					</g>
					<g>
						<path style="fill:#33363A;" d="M71.329,47.69c-1.676,0-3.435-0.19-5.359-0.398l-1.59-0.168
							c-0.708-0.072-1.267-0.631-1.34-1.339l-0.168-1.578c-0.678-6.239-1.167-10.747,4.381-16.296
							c5.583-5.585,13.298-8.326,21.173-7.516c0.708,0.073,1.267,0.632,1.339,1.339c0.805,7.871-1.935,15.588-7.517,21.172
							c0,0,0,0,0,0C78.414,46.738,75.079,47.69,71.329,47.69z M65.896,44.267l0.396,0.042c5.998,0.647,9.303,1.005,13.834-3.524
							c4.647-4.648,7.069-10.968,6.749-17.5c-6.525-0.318-12.853,2.098-17.5,6.747c-4.533,4.532-4.173,7.842-3.521,13.851
							L65.896,44.267z"/>
					</g>
				</g>
			</g>
			<g>
				<g>
					<g>
						<path style="fill:#18AA67;" d="M46.749,41.846c5.457,5.458,9.531,4.512,16.652,3.785c0.732-7.125,1.678-11.201-3.779-16.66
							c-5.457-5.457-12.838-7.815-19.961-7.084C38.933,29.008,41.288,36.387,46.749,41.846z"/>
					</g>
					<g>
						<path style="fill:#65E529;" d="M39.661,21.887l23.74,23.744c0.732-7.125,1.678-11.201-3.779-16.66
							C54.165,23.514,46.784,21.156,39.661,21.887z"/>
					</g>
					<g>
						<path style="fill:#33363A;" d="M56.604,47.69c-3.751,0-7.084-0.951-10.916-4.783v0c0,0,0,0,0,0
							c-5.584-5.582-8.325-13.299-7.52-21.172c0.072-0.707,0.631-1.267,1.339-1.339c7.873-0.807,15.59,1.931,21.175,7.516
							c5.547,5.549,5.057,10.057,4.379,16.295l-0.168,1.579c-0.073,0.708-0.632,1.267-1.34,1.339l-1.589,0.168
							C60.04,47.5,58.28,47.69,56.604,47.69z M41.059,23.284c-0.321,6.534,2.102,12.854,6.75,17.5c0,0,0,0,0,0
							c4.528,4.529,7.834,4.173,13.833,3.523l0.396-0.042l0.042-0.385c0.653-6.009,1.012-9.318-3.519-13.851
							C53.913,25.383,47.599,22.967,41.059,23.284z"/>
					</g>
				</g>
			</g>
		</g>
	</g>
</g>
<g>
</g>
<g>
</g>
<g>
</g>
<g>
</g>
<g>
</g>
<g>
</g>
<g>
</g>
<g>
</g>
<g>
</g>
<g>
</g>
<g>
</g>
<g>
</g>
<g>
</g>
<g>
</g>
<g>
</g>
</svg>
