<?xml version="1.0" encoding="iso-8859-1"?>
<!-- Generator: Adobe Illustrator 19.0.0, SVG Export Plug-In . SVG Version: 6.00 Build 0)  -->
<svg version="1.1" id="Layer_1" xmlns="http://www.w3.org/2000/svg" xmlns:xlink="http://www.w3.org/1999/xlink" x="0px" y="0px"
	 viewBox="0 0 128.232 128.232" style="enable-background:new 0 0 128.232 128.232;" xml:space="preserve">
<g>
	<g>
		<path style="fill:#FFCCF5;" d="M106.967,119.715L87.212,78.34V6.405c0-2.708-2.196-4.905-4.905-4.905H45.926
			c-2.709,0-4.905,2.197-4.905,4.905V78.34l-19.755,41.375c-0.726,1.518-0.621,3.305,0.277,4.729
			c0.898,1.425,2.465,2.288,4.149,2.288h76.848c1.685,0,3.251-0.863,4.148-2.288C107.588,123.02,107.692,121.232,106.967,119.715z"
			/>
	</g>
	<g>
		<path style="fill:#F79AE1;" d="M91.807,119.715L79.04,78.34V6.405c0-2.708-1.419-4.905-3.169-4.905h-23.51
			c-1.751,0-3.17,2.197-3.17,4.905V78.34l-12.767,41.375c-0.469,1.518-0.401,3.305,0.179,4.729c0.581,1.425,1.593,2.288,2.682,2.288
			h49.661c1.089,0,2.101-0.863,2.682-2.288C92.209,123.02,92.276,121.232,91.807,119.715z"/>
	</g>
	<g>
		<path style="fill:#D7F0FF;" d="M87.212,6.405c0-2.708-2.196-4.905-4.905-4.905H45.926c-2.709,0-4.905,2.197-4.905,4.905v27.592
			h15.246v19.621c0,2.708,2.196,4.905,4.905,4.905h5.889c2.709,0,4.905-2.197,4.905-4.905V33.997h15.246V6.405z"/>
	</g>
	<g>
		<path style="fill:#B5DAF4;" d="M49.191,6.405v27.592h7.075v19.621c0,2.708,2.196,4.905,4.905,4.905h5.889
			c2.709,0,4.905-2.197,4.905-4.905V33.997h7.074V6.405c0-2.708-1.419-4.905-3.169-4.905h-23.51
			C50.61,1.5,49.191,3.697,49.191,6.405z"/>
	</g>
	<path style="fill:#33363A;" d="M108.32,119.068L108.32,119.068L88.712,78V33.997V6.405C88.712,2.874,85.839,0,82.307,0H45.926
		c-3.532,0-6.405,2.874-6.405,6.405v27.592V78l-19.608,41.068c-0.954,1.995-0.818,4.304,0.362,6.177
		c1.18,1.871,3.205,2.988,5.418,2.988h76.848c2.214,0,4.239-1.117,5.417-2.987C109.139,123.373,109.274,121.064,108.32,119.068z
		 M42.521,6.405C42.521,4.528,44.048,3,45.926,3h36.381c1.878,0,3.405,1.528,3.405,3.405v26.092H71.966c-0.828,0-1.5,0.671-1.5,1.5
		v19.621c0,1.877-1.527,3.405-3.405,3.405h-5.889c-1.878,0-3.405-1.528-3.405-3.405V33.997c0-0.829-0.672-1.5-1.5-1.5H42.521V6.405z
		 M105.419,123.645c-0.626,0.994-1.702,1.587-2.879,1.587H25.692c-1.177,0-2.254-0.594-2.881-1.588
		c-0.627-0.995-0.699-2.222-0.192-3.283l19.755-41.375c0.097-0.202,0.146-0.423,0.146-0.646V35.497h12.246v18.121
		c0,3.532,2.873,6.405,6.405,6.405h5.889c3.532,0,6.405-2.874,6.405-6.405V35.497h12.246V78.34c0,0.224,0.05,0.444,0.146,0.646
		l19.755,41.375v0C106.12,121.422,106.048,122.649,105.419,123.645z"/>
	<g>
		<circle style="fill:#FFCCF5;" cx="62.482" cy="104.102" r="2.861"/>
	</g>
	<g>
		<circle style="fill:#FFCCF5;" cx="73.211" cy="95.006" r="3.985"/>
	</g>
	<g>
		<circle style="fill:#FFCCF5;" cx="51.29" cy="96.488" r="1.481"/>
	</g>
	<g>
		<circle style="fill:#FFCCF5;" cx="54.56" cy="116.979" r="3.27"/>
	</g>
	<g>
		<circle style="fill:#FFCCF5;" cx="80.262" cy="116.774" r="1.839"/>
	</g>
	<g>
		<g>
			<path style="fill:#87B8D6;" d="M70.707,14.446c3.643,3.645,3.643,9.546,0,13.189c-6.233,6.234-6.948,6.234-13.184,0
				c-3.641-3.643-3.641-9.543,0-13.189C61.165,10.807,67.067,10.807,70.707,14.446z"/>
		</g>
		<g>
			<path style="fill:#FFFFFF;" d="M70.707,11.278c3.643,3.641,3.643,9.544,0,13.185c-3.64,3.638-9.542,3.638-13.184,0
				c-3.641-3.641-3.641-9.544,0-13.185C61.165,7.638,67.067,7.638,70.707,11.278z"/>
		</g>
		<g>
			<path style="fill:#D8E5EA;" d="M57.523,24.463c-3.641-3.641-3.641-9.544,0-13.185c3.642-3.641,9.544-3.641,13.184,0"/>
		</g>
		<g>
			<path style="fill:#33363A;" d="M64.116,28.686c-2.771,0-5.543-1.054-7.653-3.162c-4.22-4.22-4.22-11.086,0-15.306
				c2.045-2.044,4.763-3.17,7.653-3.17c2.891,0,5.607,1.125,7.651,3.169l0,0v0l0,0c2.045,2.044,3.171,4.762,3.171,7.653
				s-1.126,5.609-3.171,7.653C69.658,27.632,66.887,28.686,64.116,28.686z M64.116,10.048c-2.09,0-4.055,0.813-5.532,2.292
				c-3.05,3.05-3.05,8.013,0,11.063c3.051,3.047,8.014,3.047,11.063,0c1.479-1.478,2.292-3.442,2.292-5.531
				s-0.813-4.054-2.292-5.531v0C68.169,10.861,66.205,10.048,64.116,10.048z"/>
		</g>
	</g>
	<g>
		<path style="fill:#33363A;" d="M64.116,20.757c-1.593,0-2.889-1.295-2.889-2.888c0-1.592,1.296-2.887,2.889-2.887
			c1.592,0,2.888,1.295,2.888,2.887C67.004,19.461,65.708,20.757,64.116,20.757z"/>
	</g>
</g>
<g>
</g>
<g>
</g>
<g>
</g>
<g>
</g>
<g>
</g>
<g>
</g>
<g>
</g>
<g>
</g>
<g>
</g>
<g>
</g>
<g>
</g>
<g>
</g>
<g>
</g>
<g>
</g>
<g>
</g>
</svg>
